<?xml version="1.0" encoding="UTF-8"?>
<!DOCTYPE svg PUBLIC "-//W3C//DTD SVG 1.1//EN" "http://www.w3.org/Graphics/SVG/1.1/DTD/svg11.dtd">
<svg xmlns="http://www.w3.org/2000/svg" version="1.1" width="65px" height="73px" style="shape-rendering:geometricPrecision; text-rendering:geometricPrecision; image-rendering:optimizeQuality; fill-rule:evenodd; clip-rule:evenodd" xmlns:xlink="http://www.w3.org/1999/xlink">
<g><path style="opacity:1" fill="#fcfbf9" d="M -0.5,-0.5 C 21.1667,-0.5 42.8333,-0.5 64.5,-0.5C 64.5,23.8333 64.5,48.1667 64.5,72.5C 42.8333,72.5 21.1667,72.5 -0.5,72.5C -0.5,64.5 -0.5,56.5 -0.5,48.5C 1.16667,48.5 2.83333,48.5 4.5,48.5C 6.05474,48.2304 6.38807,52.5637 5.5,61.5C 12.1998,61.17 18.8665,61.5033 25.5,62.5C 23.604,63.4656 21.604,63.7989 19.5,63.5C 19.5,65.5 19.5,67.5 19.5,69.5C 26.8333,69.5 34.1667,69.5 41.5,69.5C 41.5,67.5 41.5,65.5 41.5,63.5C 39.396,63.7989 37.396,63.4656 35.5,62.5C 41.7985,61.5037 48.1318,61.1703 54.5,61.5C 54.61,52.1456 54.2767,42.8123 53.5,33.5C 55.1667,33.5 56.8333,33.5 58.5,33.5C 58.5,31.5 58.5,29.5 58.5,27.5C 59.5,27.5 60.5,27.5 61.5,27.5C 61.5,33.8333 61.5,40.1667 61.5,46.5C 60.5,46.5 59.5,46.5 58.5,46.5C 58.5,44.5 58.5,42.5 58.5,40.5C 57.448,40.3505 56.448,40.5172 55.5,41C 57.25,42.7542 57.9167,44.9208 57.5,47.5C 59.2624,47.3573 60.9291,47.6906 62.5,48.5C 63.4975,40.8622 63.8308,33.1955 63.5,25.5C 61.5,25.5 59.5,25.5 57.5,25.5C 57.7989,27.604 57.4656,29.604 56.5,31.5C 55.5037,25.2015 55.1703,18.8682 55.5,12.5C 48.8002,12.83 42.1335,12.4967 35.5,11.5C 37.7427,10.5258 40.076,10.1924 42.5,10.5C 42.5,8.5 42.5,6.5 42.5,4.5C 34.8333,4.5 27.1667,4.5 19.5,4.5C 19.5,6.5 19.5,8.5 19.5,10.5C 21.604,10.2011 23.604,10.5344 25.5,11.5C 18.8665,12.4967 12.1998,12.83 5.5,12.5C 6.38807,21.4363 6.05474,25.7696 4.5,25.5C 2.83333,25.5 1.16667,25.5 -0.5,25.5C -0.5,16.8333 -0.5,8.16667 -0.5,-0.5 Z"/></g>
<g><path style="opacity:1" fill="#d8be97" d="M -0.5,48.5 C -0.5,47.8333 -0.5,47.1667 -0.5,46.5C 0.5,46.5 1.5,46.5 2.5,46.5C 2.5,44.5 2.5,42.5 2.5,40.5C 4.16667,40.5 5.83333,40.5 7.5,40.5C 7.5,38.1667 7.5,35.8333 7.5,33.5C 5.83333,33.5 4.16667,33.5 2.5,33.5C 2.5,31.5 2.5,29.5 2.5,27.5C 1.5,27.5 0.5,27.5 -0.5,27.5C -0.5,26.8333 -0.5,26.1667 -0.5,25.5C 1.16667,25.5 2.83333,25.5 4.5,25.5C 6.05474,25.7696 6.38807,21.4363 5.5,12.5C 12.1998,12.83 18.8665,12.4967 25.5,11.5C 23.604,10.5344 21.604,10.2011 19.5,10.5C 19.5,8.5 19.5,6.5 19.5,4.5C 27.1667,4.5 34.8333,4.5 42.5,4.5C 42.5,6.5 42.5,8.5 42.5,10.5C 40.076,10.1924 37.7427,10.5258 35.5,11.5C 42.1335,12.4967 48.8002,12.83 55.5,12.5C 55.1703,18.8682 55.5037,25.2015 56.5,31.5C 57.4656,29.604 57.7989,27.604 57.5,25.5C 59.5,25.5 61.5,25.5 63.5,25.5C 63.8308,33.1955 63.4975,40.8622 62.5,48.5C 60.9291,47.6906 59.2624,47.3573 57.5,47.5C 57.9167,44.9208 57.25,42.7542 55.5,41C 56.448,40.5172 57.448,40.3505 58.5,40.5C 58.5,42.5 58.5,44.5 58.5,46.5C 59.5,46.5 60.5,46.5 61.5,46.5C 61.5,40.1667 61.5,33.8333 61.5,27.5C 60.5,27.5 59.5,27.5 58.5,27.5C 58.5,29.5 58.5,31.5 58.5,33.5C 56.8333,33.5 55.1667,33.5 53.5,33.5C 54.2767,42.8123 54.61,52.1456 54.5,61.5C 48.1318,61.1703 41.7985,61.5037 35.5,62.5C 37.396,63.4656 39.396,63.7989 41.5,63.5C 41.5,65.5 41.5,67.5 41.5,69.5C 34.1667,69.5 26.8333,69.5 19.5,69.5C 19.5,67.5 19.5,65.5 19.5,63.5C 21.604,63.7989 23.604,63.4656 25.5,62.5C 18.8665,61.5033 12.1998,61.17 5.5,61.5C 6.38807,52.5637 6.05474,48.2304 4.5,48.5C 2.83333,48.5 1.16667,48.5 -0.5,48.5 Z"/></g>
<g><path style="opacity:1" fill="#fbfaf8" d="M 20.5,6.5 C 27.1998,6.16998 33.8665,6.50331 40.5,7.5C 38.2573,8.47423 35.924,8.80756 33.5,8.5C 33.5,10.1667 33.5,11.8333 33.5,13.5C 31.5,13.5 29.5,13.5 27.5,13.5C 27.5,11.8333 27.5,10.1667 27.5,8.5C 24.6122,9.01017 22.2789,8.34351 20.5,6.5 Z"/></g>
<g><path style="opacity:1" fill="#fdfdfc" d="M 8.5,14.5 C 13.1785,14.3342 17.8452,14.5008 22.5,15C 16.3924,17.4413 11.8924,21.6079 9,27.5C 8.50098,23.1794 8.33432,18.8461 8.5,14.5 Z"/></g>
<g><path style="opacity:1" fill="#fbf9f5" d="M 38.5,15.5 C 43.3054,14.5128 48.3054,14.1795 53.5,14.5C 53.6659,19.5111 53.4993,24.5111 53,29.5C 50.283,22.616 45.4497,17.9493 38.5,15.5 Z"/></g>
<g><path style="opacity:1" fill="#f8f3ed" d="M -0.5,27.5 C 0.5,27.5 1.5,27.5 2.5,27.5C 2.5,29.5 2.5,31.5 2.5,33.5C 4.16667,33.5 5.83333,33.5 7.5,33.5C 7.5,35.8333 7.5,38.1667 7.5,40.5C 5.83333,40.5 4.16667,40.5 2.5,40.5C 2.5,42.5 2.5,44.5 2.5,46.5C 1.5,46.5 0.5,46.5 -0.5,46.5C -0.5,40.1667 -0.5,33.8333 -0.5,27.5 Z"/></g>
<g><path style="opacity:1" fill="#f9f5f3" d="M 24.5,15.5 C 37.1745,13.916 46.0078,18.916 51,30.5C 53.4691,44.0691 48.3024,53.2357 35.5,58C 22.7037,59.8536 14.2037,54.6869 10,42.5C 8.00783,29.8169 12.8412,20.8169 24.5,15.5 Z"/></g>
<g><path style="opacity:1" fill="#171616" d="M 25.5,27.5 C 26.5,27.5 27.5,27.5 28.5,27.5C 29.5,27.5 30.5,27.5 31.5,27.5C 31.5,28.5 31.5,29.5 31.5,30.5C 30.8333,30.5 30.1667,30.5 29.5,30.5C 28.1667,30.5 26.8333,30.5 25.5,30.5C 24.1858,32.9151 23.5191,35.7485 23.5,39C 23.5191,42.2515 24.1858,45.0849 25.5,47.5C 25.5,48.8333 25.5,50.1667 25.5,51.5C 23.5,51.5 21.5,51.5 19.5,51.5C 19.5,43.5 19.5,35.5 19.5,27.5C 21.5,27.5 23.5,27.5 25.5,27.5 Z"/></g>
<g><path style="opacity:1" fill="#ad1b18" d="M 25.5,18.5 C 26.5,18.5 27.5,18.5 28.5,18.5C 28.5,21.5 28.5,24.5 28.5,27.5C 27.5,27.5 26.5,27.5 25.5,27.5C 25.5,25.8333 25.5,24.1667 25.5,22.5C 19.0006,24.7856 15.3339,29.4522 14.5,36.5C 13.1667,36.5 11.8333,36.5 10.5,36.5C 11.9071,27.4323 16.9071,21.4323 25.5,18.5 Z"/></g>
<g><path style="opacity:1" fill="#c37d7d" d="M 25.5,18.5 C 26.5676,17.5655 27.901,17.2322 29.5,17.5C 30.1667,29.5 30.8333,29.5 31.5,17.5C 32.791,17.2627 33.791,17.596 34.5,18.5C 32.89,21.2033 31.89,24.2033 31.5,27.5C 30.5,27.5 29.5,27.5 28.5,27.5C 28.5,24.5 28.5,21.5 28.5,18.5C 27.5,18.5 26.5,18.5 25.5,18.5 Z"/></g>
<g><path style="opacity:1" fill="#fefefe" d="M 29.5,31.5 C 31.4461,36.3958 32.1128,41.7291 31.5,47.5C 30.8333,47.5 30.1667,47.5 29.5,47.5C 29.5,42.1667 29.5,36.8333 29.5,31.5 Z"/></g>
<g><path style="opacity:1" fill="#ad1515" d="M 34.5,18.5 C 43.6822,21.0185 49.0155,27.0185 50.5,36.5C 49.1667,36.5 47.8333,36.5 46.5,36.5C 45.6779,29.4901 42.0112,24.8235 35.5,22.5C 35.5,24.1667 35.5,25.8333 35.5,27.5C 35.5,28.5 35.5,29.5 35.5,30.5C 35.5,36.1667 35.5,41.8333 35.5,47.5C 34.5,47.5 33.5,47.5 32.5,47.5C 32.8222,41.642 32.4889,35.9753 31.5,30.5C 31.5,29.5 31.5,28.5 31.5,27.5C 31.89,24.2033 32.89,21.2033 34.5,18.5 Z"/></g>
<g><path style="opacity:1" fill="#120d0d" d="M 35.5,27.5 C 41.764,27.6139 41.764,28.6139 35.5,30.5C 35.5,29.5 35.5,28.5 35.5,27.5 Z"/></g>
<g><path style="opacity:1" fill="#c78080" d="M 29.5,31.5 C 29.5,31.1667 29.5,30.8333 29.5,30.5C 30.1667,30.5 30.8333,30.5 31.5,30.5C 32.4889,35.9753 32.8222,41.642 32.5,47.5C 32.1667,47.5 31.8333,47.5 31.5,47.5C 32.1128,41.7291 31.4461,36.3958 29.5,31.5 Z"/></g>
<g><path style="opacity:1" fill="#eae5e3" d="M 25.5,30.5 C 25.5,36.1667 25.5,41.8333 25.5,47.5C 24.1858,45.0849 23.5191,42.2515 23.5,39C 23.5191,35.7485 24.1858,32.9151 25.5,30.5 Z"/></g>
<g><path style="opacity:1" fill="#b02923" d="M 25.5,30.5 C 26.8333,30.5 28.1667,30.5 29.5,30.5C 29.5,30.8333 29.5,31.1667 29.5,31.5C 29.5,36.8333 29.5,42.1667 29.5,47.5C 29.5,48.8333 29.5,50.1667 29.5,51.5C 29.5496,58.9689 28.2162,58.9689 25.5,51.5C 25.5,50.1667 25.5,48.8333 25.5,47.5C 25.5,41.8333 25.5,36.1667 25.5,30.5 Z"/></g>
<g><path style="opacity:1" fill="#fdfdfc" d="M 8.5,46.5 C 11.7028,52.1974 16.3695,56.3641 22.5,59C 17.8452,59.4992 13.1785,59.6658 8.5,59.5C 8.5,55.1667 8.5,50.8333 8.5,46.5 Z"/></g>
<g><path style="opacity:1" fill="#fbf8f5" d="M 52.5,43.5 C 53.4881,48.6405 53.8214,53.9738 53.5,59.5C 48.4889,59.6659 43.4889,59.4993 38.5,59C 45.8554,56.15 50.522,50.9834 52.5,43.5 Z"/></g>
<g><path style="opacity:1" fill="#171212" d="M 29.5,47.5 C 30.1667,47.5 30.8333,47.5 31.5,47.5C 31.8333,47.5 32.1667,47.5 32.5,47.5C 33.5,47.5 34.5,47.5 35.5,47.5C 42.9689,50.2162 42.9689,51.5496 35.5,51.5C 34.5,51.5 33.5,51.5 32.5,51.5C 31.5,51.5 30.5,51.5 29.5,51.5C 29.5,50.1667 29.5,48.8333 29.5,47.5 Z"/></g>
<g><path style="opacity:1" fill="#ac1f17" d="M 32.5,51.5 C 33.5,51.5 34.5,51.5 35.5,51.5C 33.6139,57.764 32.6139,57.764 32.5,51.5 Z"/></g>
<g><path style="opacity:1" fill="#fcfbf9" d="M 27.5,60.5 C 29.5,60.5 31.5,60.5 33.5,60.5C 33.5,62.1667 33.5,63.8333 33.5,65.5C 35.924,65.1924 38.2573,65.5258 40.5,66.5C 33.8333,67.8333 27.1667,67.8333 20.5,66.5C 22.7427,65.5258 25.076,65.1924 27.5,65.5C 27.5,63.8333 27.5,62.1667 27.5,60.5 Z"/></g>
</svg>
